<?xml version="1.0" encoding="UTF-8" standalone="no"?>
<!-- Created with Inkscape (http://www.inkscape.org/) -->

<svg
   xmlns:dc="http://purl.org/dc/elements/1.1/"
   xmlns:cc="http://creativecommons.org/ns#"
   xmlns:rdf="http://www.w3.org/1999/02/22-rdf-syntax-ns#"
   xmlns:svg="http://www.w3.org/2000/svg"
   xmlns="http://www.w3.org/2000/svg"
   xmlns:xlink="http://www.w3.org/1999/xlink"
   xmlns:sodipodi="http://sodipodi.sourceforge.net/DTD/sodipodi-0.dtd"
   xmlns:inkscape="http://www.inkscape.org/namespaces/inkscape"
   viewBox="0 0 6.3499999 6.3500002"
   version="1.1"
   id="svg8"
   inkscape:version="0.92.4 (5da689c313, 2019-01-14)"
   sodipodi:docname="5. Briefcase.svg">
  <defs
     id="defs2">
    <linearGradient
       inkscape:collect="always"
       id="linearGradient845">
      <stop
         style="stop-color:#ff1493;stop-opacity:1"
         offset="0"
         id="stop841" />
      <stop
         style="stop-color:#8a2be2;stop-opacity:1"
         offset="1"
         id="stop843" />
    </linearGradient>
    <pattern
       y="0"
       x="0"
       height="6"
       width="6"
       patternUnits="userSpaceOnUse"
       id="EMFhbasepattern" />
    <pattern
       y="0"
       x="0"
       height="6"
       width="6"
       patternUnits="userSpaceOnUse"
       id="EMFhbasepattern-3" />
    <pattern
       y="0"
       x="0"
       height="6"
       width="6"
       patternUnits="userSpaceOnUse"
       id="EMFhbasepattern-2" />
    <pattern
       y="0"
       x="0"
       height="6"
       width="6"
       patternUnits="userSpaceOnUse"
       id="EMFhbasepattern-1" />
    <linearGradient
       inkscape:collect="always"
       xlink:href="#linearGradient845"
       id="linearGradient847"
       x1="0.77268946"
       y1="291.767"
       x2="5.5305386"
       y2="295.88297"
       gradientUnits="userSpaceOnUse" />
  </defs>
  <sodipodi:namedview
     id="base"
     pagecolor="#ffffff"
     bordercolor="#666666"
     borderopacity="1.0"
     inkscape:pageopacity="0.0"
     inkscape:pageshadow="2"
     inkscape:zoom="11.313708"
     inkscape:cx="6.51203"
     inkscape:cy="7.643972"
     inkscape:document-units="px"
     inkscape:current-layer="layer1"
     showgrid="false"
     units="px"
     inkscape:window-width="1280"
     inkscape:window-height="658"
     inkscape:window-x="-8"
     inkscape:window-y="-8"
     inkscape:window-maximized="1"
     showguides="true"
     guidecolor="#af0000"
     guideopacity="0.49803922"
     guidehicolor="#ff4b4b"
     guidehiopacity="0.49803922"
     inkscape:snap-global="false">
    <inkscape:grid
       type="xygrid"
       id="grid815"
       empspacing="1"
       originx="0"
       originy="0"
       spacingx="0"
       spacingy="0"
       snapvisiblegridlinesonly="true"
       visible="true"
       enabled="true"
       dotted="false" />
  </sodipodi:namedview>
  <metadata
     id="metadata5">
    <rdf:RDF>
      <cc:Work
         rdf:about="">
        <dc:format>image/svg+xml</dc:format>
        <dc:type
           rdf:resource="http://purl.org/dc/dcmitype/StillImage" />
        <dc:title />
      </cc:Work>
    </rdf:RDF>
  </metadata>
  <g
     inkscape:label="Guides"
     inkscape:groupmode="layer"
     id="layer1"
     transform="translate(0,-290.64999)">
    <path
       style="color:#000000;font-style:normal;font-variant:normal;font-weight:normal;font-stretch:normal;font-size:medium;line-height:normal;font-family:sans-serif;font-variant-ligatures:normal;font-variant-position:normal;font-variant-caps:normal;font-variant-numeric:normal;font-variant-alternates:normal;font-feature-settings:normal;text-indent:0;text-align:start;text-decoration:none;text-decoration-line:none;text-decoration-style:solid;text-decoration-color:#000000;letter-spacing:normal;word-spacing:normal;text-transform:none;writing-mode:lr-tb;direction:ltr;text-orientation:mixed;dominant-baseline:auto;baseline-shift:baseline;text-anchor:start;white-space:normal;shape-padding:0;clip-rule:nonzero;display:inline;overflow:visible;visibility:visible;opacity:1;isolation:auto;mix-blend-mode:normal;color-interpolation:sRGB;color-interpolation-filters:linearRGB;solid-color:#000000;solid-opacity:1;vector-effect:none;fill:#cfa15a;fill-opacity:1;fill-rule:nonzero;stroke:none;stroke-width:0.26458335;stroke-linecap:round;stroke-linejoin:round;stroke-miterlimit:4;stroke-dasharray:none;stroke-dashoffset:0;stroke-opacity:1;color-rendering:auto;image-rendering:auto;shape-rendering:auto;text-rendering:auto;enable-background:accumulate"
       d="m 1.2277276,292.20097 c -0.23703028,0 -0.43164058,0.19461 -0.43164058,0.43164 v 2.83985 c 0,0.23038 0.18831097,0.43164 0.43164058,0.43164 h 3.8945313 c 0.2433296,0 0.4316406,-0.20126 0.4316406,-0.43164 v -2.83985 c 0,-0.23703 -0.1946103,-0.43164 -0.4316406,-0.43164 z"
       id="path1278"
       inkscape:connector-curvature="0"
       sodipodi:nodetypes="sssssssss" />
    <path
       style="color:#000000;font-style:normal;font-variant:normal;font-weight:normal;font-stretch:normal;font-size:medium;line-height:normal;font-family:sans-serif;font-variant-ligatures:normal;font-variant-position:normal;font-variant-caps:normal;font-variant-numeric:normal;font-variant-alternates:normal;font-feature-settings:normal;text-indent:0;text-align:start;text-decoration:none;text-decoration-line:none;text-decoration-style:solid;text-decoration-color:#000000;letter-spacing:normal;word-spacing:normal;text-transform:none;writing-mode:lr-tb;direction:ltr;text-orientation:mixed;dominant-baseline:auto;baseline-shift:baseline;text-anchor:start;white-space:normal;shape-padding:0;clip-rule:nonzero;display:inline;overflow:visible;visibility:visible;opacity:1;isolation:auto;mix-blend-mode:normal;color-interpolation:sRGB;color-interpolation-filters:linearRGB;solid-color:#000000;solid-opacity:1;vector-effect:none;fill:#615535;fill-opacity:1;fill-rule:nonzero;stroke:none;stroke-width:0.26458335;stroke-linecap:round;stroke-linejoin:round;stroke-miterlimit:4;stroke-dasharray:none;stroke-dashoffset:0;stroke-opacity:1;color-rendering:auto;image-rendering:auto;shape-rendering:auto;text-rendering:auto;enable-background:accumulate"
       d="m 2.7609308,291.74589 c -0.1090662,0 -0.2089012,0.03 -0.2890626,0.0879 -0.080161,0.0579 -0.1425781,0.15136 -0.1425781,0.25977 0,0.10999 0.059751,0.20886 0.140625,0.26953 0.080874,0.0607 0.181939,0.0898 0.2910157,0.0898 h 0.828125 c 0.109066,0 0.2101356,-0.0292 0.2910156,-0.0898 0.08088,-0.0607 0.140625,-0.15954 0.140625,-0.26953 0,-0.10841 -0.062423,-0.20186 -0.1425782,-0.25977 -0.080155,-0.0579 -0.1799858,-0.0879 -0.2890624,-0.0879 z m 0,0.26368 h 0.828125 c 0.05865,0 0.1070963,0.0191 0.1347656,0.0391 0.027669,0.02 0.03125,0.0335 0.03125,0.0449 0,0.0218 -0.00626,0.0364 -0.033203,0.0566 -0.026944,0.0202 -0.074152,0.0391 -0.1328124,0.0391 H 2.760931 c -0.058651,0 -0.1058618,-0.0188 -0.1328126,-0.0391 -0.026951,-0.0202 -0.033203,-0.0349 -0.033203,-0.0566 0,-0.0114 0.00359,-0.0249 0.03125,-0.0449 0.027663,-0.02 0.076105,-0.0391 0.1347654,-0.0391 z"
       id="path1280"
       inkscape:connector-curvature="0" />
    <path
       style="color:#000000;font-style:normal;font-variant:normal;font-weight:normal;font-stretch:normal;font-size:medium;line-height:normal;font-family:sans-serif;font-variant-ligatures:normal;font-variant-position:normal;font-variant-caps:normal;font-variant-numeric:normal;font-variant-alternates:normal;font-feature-settings:normal;text-indent:0;text-align:start;text-decoration:none;text-decoration-line:none;text-decoration-style:solid;text-decoration-color:#000000;letter-spacing:normal;word-spacing:normal;text-transform:none;writing-mode:lr-tb;direction:ltr;text-orientation:mixed;dominant-baseline:auto;baseline-shift:baseline;text-anchor:start;white-space:normal;shape-padding:0;clip-rule:nonzero;display:inline;overflow:visible;visibility:visible;opacity:1;isolation:auto;mix-blend-mode:normal;color-interpolation:sRGB;color-interpolation-filters:linearRGB;solid-color:#000000;solid-opacity:1;vector-effect:none;fill:#c18538;fill-opacity:1;fill-rule:nonzero;stroke:none;stroke-width:0.26458335;stroke-linecap:round;stroke-linejoin:round;stroke-miterlimit:4;stroke-dasharray:none;stroke-dashoffset:0;stroke-opacity:1;color-rendering:auto;image-rendering:auto;shape-rendering:auto;text-rendering:auto;enable-background:accumulate"
       d="m 1.2280776,292.2006 c -0.23712144,0 -0.43149819,0.19514 -0.43149819,0.43201 v 0.43925 c 4.922e-5,0.023 0.006105,0.0456 0.01757,0.0656 0.0491911,0.0862 0.0963664,0.16837 0.11058758,0.19224 -0.004686,-0.008 0.01757,0.031 0.01757,0.031 0.0234826,0.0415 0.0675175,0.0672 0.11523852,0.0672 h 0.042375 l 2.0257162,0.77256 c 0.029922,0.0114 0.062972,0.0116 0.093018,5.1e-4 l 2.1182169,-0.78134 c 0.00441,-0.002 0.00872,-0.004 0.012919,-0.006 l 0.1307414,-0.0651 c 0.044919,-0.0223 0.073336,-0.0682 0.073381,-0.11834 v -0.5979 c 0,-0.23714 -0.1948936,-0.43201 -0.4320151,-0.43201 z m 1.9456175,1.73527 c -2.1163221,2.04261 -1.058161,1.02131 0,0 z"
       id="path1282"
       inkscape:connector-curvature="0"
       sodipodi:nodetypes="csccccccccccccscccc" />
    <path
       style="color:#000000;font-style:normal;font-variant:normal;font-weight:normal;font-stretch:normal;font-size:medium;line-height:normal;font-family:sans-serif;font-variant-ligatures:normal;font-variant-position:normal;font-variant-caps:normal;font-variant-numeric:normal;font-variant-alternates:normal;font-feature-settings:normal;text-indent:0;text-align:start;text-decoration:none;text-decoration-line:none;text-decoration-style:solid;text-decoration-color:#000000;letter-spacing:normal;word-spacing:normal;text-transform:none;writing-mode:lr-tb;direction:ltr;text-orientation:mixed;dominant-baseline:auto;baseline-shift:baseline;text-anchor:start;white-space:normal;shape-padding:0;clip-rule:nonzero;display:inline;overflow:visible;visibility:visible;opacity:1;isolation:auto;mix-blend-mode:normal;color-interpolation:sRGB;color-interpolation-filters:linearRGB;solid-color:#000000;solid-opacity:1;vector-effect:none;fill:#9a6a44;fill-opacity:1;fill-rule:nonzero;stroke:none;stroke-width:0.26458335;stroke-linecap:round;stroke-linejoin:round;stroke-miterlimit:4;stroke-dasharray:none;stroke-dashoffset:0;stroke-opacity:1;color-rendering:auto;image-rendering:auto;shape-rendering:auto;text-rendering:auto;enable-background:accumulate"
       d="m 3.0734308,293.51933 c -0.2370356,0 -0.4316407,0.19461 -0.4316407,0.43164 v 0.20313 c 0,0.23704 0.1946104,0.43164 0.4316407,0.43164 H 3.264837 c 0.2370302,0 0.4316406,-0.1946 0.4316406,-0.43164 v -0.20313 c 0,-0.23703 -0.1946051,-0.43164 -0.4316406,-0.43164 z"
       id="path1286"
       inkscape:connector-curvature="0"
       sodipodi:nodetypes="sssssssss" />
    <path
       inkscape:connector-curvature="0"
       style="color:#000000;font-style:normal;font-variant:normal;font-weight:normal;font-stretch:normal;font-size:medium;line-height:normal;font-family:sans-serif;font-variant-ligatures:normal;font-variant-position:normal;font-variant-caps:normal;font-variant-numeric:normal;font-variant-alternates:normal;font-feature-settings:normal;text-indent:0;text-align:start;text-decoration:none;text-decoration-line:none;text-decoration-style:solid;text-decoration-color:#000000;letter-spacing:normal;word-spacing:normal;text-transform:none;writing-mode:lr-tb;direction:ltr;text-orientation:mixed;dominant-baseline:auto;baseline-shift:baseline;text-anchor:start;white-space:normal;shape-padding:0;clip-rule:nonzero;display:inline;overflow:visible;visibility:visible;opacity:1;isolation:auto;mix-blend-mode:normal;color-interpolation:sRGB;color-interpolation-filters:linearRGB;solid-color:#000000;solid-opacity:1;vector-effect:none;fill:url(#linearGradient847);fill-opacity:1;fill-rule:nonzero;stroke:none;stroke-width:0.26458335;stroke-linecap:round;stroke-linejoin:round;stroke-miterlimit:4;stroke-dasharray:none;stroke-dashoffset:0;stroke-opacity:1;color-rendering:auto;image-rendering:auto;shape-rendering:auto;text-rendering:auto;enable-background:accumulate"
       d="m 2.7608187,291.74579 c -0.1090663,0 -0.2087099,0.0299 -0.2888713,0.0879 -0.080161,0.0579 -0.142627,0.15152 -0.142627,0.25993 0,0.0376 0.00827,0.0731 0.020671,0.10697 H 1.2280956 c -0.057663,0 -0.1122797,0.0116 -0.162264,0.0326 -0.020114,0.008 -0.038868,0.0189 -0.057361,0.03 -0.0028,0.002 -0.00602,0.003 -0.00879,0.005 -0.1217654,0.0762 -0.2036052,0.21097 -0.2036051,0.36437 v 2.83962 c 0,0.23038 0.1881685,0.43201 0.4314981,0.43201 h 3.8948526 c 0.2433296,0 0.4314984,-0.20163 0.4314984,-0.43201 v -2.83962 c 0,-0.12167 -0.052385,-0.23236 -0.1343589,-0.31109 -0.00238,-0.002 -0.00533,-0.004 -0.00775,-0.006 -0.016915,-0.0155 -0.034034,-0.0302 -0.053226,-0.0429 -0.067942,-0.0455 -0.1491099,-0.0723 -0.236678,-0.0723 H 4.0000142 c 0.012298,-0.0338 0.020672,-0.0691 0.020672,-0.10646 0,-0.10841 -0.062472,-0.20202 -0.142627,-0.25993 -0.080156,-0.0579 -0.179796,-0.0879 -0.2888726,-0.0879 z m 0,0.26355 h 0.828373 c 0.05865,0 0.1072063,0.0193 0.1348756,0.0393 0.027669,0.02 0.031006,0.0336 0.031006,0.045 0,0.0218 -0.00613,0.0361 -0.033073,0.0563 -0.026944,0.0202 -0.074148,0.0393 -0.1328084,0.0393 H 2.7608187 c -0.058651,0 -0.1058577,-0.019 -0.1328085,-0.0393 -0.026951,-0.0202 -0.033073,-0.0346 -0.033073,-0.0563 0,-0.0114 0.00335,-0.025 0.031006,-0.045 0.027663,-0.02 0.076215,-0.0393 0.1348755,-0.0393 z m -1.5327231,0.45579 h 3.8938191 c 0.095198,0 0.1607539,0.0654 0.1648478,0.16019 v 0.48473 l -1.6407266,0.64337 c -0.070877,-0.13551 -0.2103845,-0.2295 -0.3720703,-0.23306 -0.00312,-8e-5 -0.00563,-0.002 -0.00878,-0.002 H 3.073462 c -0.0028,0 -0.00498,0.001 -0.00775,0.002 -0.161898,0.003 -0.3012924,0.0967 -0.3725871,0.23203 l -1.6262575,-0.60927 v -0.5271 c 0.00911,-0.0901 0.070104,-0.15089 0.1612305,-0.15089 z m 4.0602171,0.92862 v 2.07843 c 0,0.0811 -0.073757,0.16795 -0.1658813,0.16795 H 1.2275788 c -0.092124,0 -0.1658813,-0.0868 -0.1658813,-0.16795 v -2.04846 l 1.5802653,0.59273 v 0.13746 c 0,0.23704 0.194468,0.43202 0.4314984,0.43202 h 0.1912027 c 0.2370301,0 0.4320148,-0.19498 0.4320148,-0.43202 v -0.13642 z m -2.2148515,0.38964 h 0.1917194 c 0.023365,0 0.044904,0.004 0.064079,0.0114 0.057524,0.0219 0.09427,0.0741 0.099219,0.14366 a 0.13230489,0.13230489 0 0 0 0.00413,0.0238 v 0.19172 c 0,0.0985 -0.069525,0.16795 -0.1679482,0.16795 H 3.0734601 c -0.098424,0 -0.1679485,-0.0695 -0.1679485,-0.16795 v -0.19224 a 0.13230489,0.13230489 0 0 0 0.00465,-0.0248 c 0.00558,-0.0684 0.042393,-0.12023 0.099219,-0.14211 0.00687,-0.003 0.015298,-0.002 0.022738,-0.004 0.013409,-0.003 0.026252,-0.007 0.041341,-0.007 z"
       id="path1278-0" />
  </g>
</svg>
