<?xml version="1.0" encoding="iso-8859-1"?>
<!-- Generator: Adobe Illustrator 19.0.0, SVG Export Plug-In . SVG Version: 6.00 Build 0)  -->
<svg xmlns="http://www.w3.org/2000/svg" xmlns:xlink="http://www.w3.org/1999/xlink" version="1.1" id="Layer_1" x="0px" y="0px" viewBox="0 0 512 512" style="enable-background:new 0 0 512 512;" xml:space="preserve">
<circle style="fill:#7FC8F1;" cx="255.996" cy="255.996" r="255.996"/>
<path style="fill:#009AE5;" d="M512,255.999c0-20.035-2.306-39.529-6.659-58.239l-87.114-87.185  c-4.945-5.477-10.164-10.703-15.636-15.654l-0.014-0.014l-0.001,0.001c-38.64-34.951-89.869-56.242-146.075-56.242  c-120.307,0-217.834,97.527-217.834,217.834c0,56.747,21.705,108.418,57.258,147.185l-0.144,0.145l6.059,6.057  c0.428,0.433,0.859,0.862,1.29,1.29l94.038,94.018c18.89,4.443,38.583,6.803,58.83,6.803C397.385,512,512,397.385,512,255.999z"/>
<circle style="fill:#57555C;" cx="256.498" cy="256.498" r="217.837"/>
<path style="fill:#3C3B41;" d="M256.502,38.668v435.668c120.307,0,217.834-97.527,217.834-217.834S376.809,38.668,256.502,38.668z"/>
<circle style="fill:#FFB551;" cx="256.498" cy="256.498" r="86.245"/>
<path style="fill:#FF8900;" d="M256.502,170.254v172.497c47.633,0,86.248-38.615,86.248-86.248  C342.75,208.869,304.136,170.254,256.502,170.254z"/>
<circle style="fill:#FFFFFF;" cx="256.498" cy="256.498" r="28.254"/>
<g>
	<path style="fill:#AEADB3;" d="M123.757,375.363c-29.307-32.709-45.446-74.921-45.446-118.861c0-43.94,16.14-86.153,45.446-118.861   l5.262,4.715c-28.144,31.411-43.644,71.949-43.644,114.146c0,42.197,15.5,82.735,43.644,114.146L123.757,375.363z"/>
	<path style="fill:#AEADB3;" d="M138.969,353.65c-22.538-27.238-34.95-61.739-34.95-97.148c0-35.41,12.412-69.91,34.95-97.148   l5.444,4.505c-21.492,25.973-33.329,58.875-33.329,92.644s11.836,66.67,33.329,92.643L138.969,353.65z"/>
	<path style="fill:#AEADB3;" d="M151.322,326.926c-13.998-20.865-21.397-45.217-21.397-70.424c0-25.207,7.399-49.56,21.397-70.424   l5.867,3.936c-13.214,19.697-20.2,42.688-20.2,66.488c0,23.799,6.985,46.791,20.2,66.488L151.322,326.926z"/>
</g>
<g>
	<path style="fill:#78777F;" d="M389.247,375.363c29.307-32.709,45.446-74.921,45.446-118.861c0-43.94-16.14-86.153-45.446-118.861   l-5.262,4.715c28.144,31.411,43.644,71.949,43.644,114.146c0,42.197-15.5,82.735-43.644,114.146L389.247,375.363z"/>
	<path style="fill:#78777F;" d="M374.035,353.65c22.538-27.238,34.95-61.739,34.95-97.148c0-35.41-12.412-69.91-34.95-97.148   l-5.444,4.505c21.492,25.973,33.329,58.875,33.329,92.644s-11.836,66.67-33.329,92.643L374.035,353.65z"/>
	<path style="fill:#78777F;" d="M361.682,326.926c13.998-20.865,21.397-45.217,21.397-70.424c0-25.207-7.399-49.56-21.397-70.424   l-5.867,3.936c13.215,19.697,20.2,42.688,20.2,66.488c0,23.799-6.985,46.791-20.2,66.488L361.682,326.926z"/>
</g>
<path style="fill:#E1E1E3;" d="M256.502,228.246v56.513c15.605,0,28.256-12.65,28.256-28.256  C284.758,240.897,272.107,228.246,256.502,228.246z"/>
<g>
</g>
<g>
</g>
<g>
</g>
<g>
</g>
<g>
</g>
<g>
</g>
<g>
</g>
<g>
</g>
<g>
</g>
<g>
</g>
<g>
</g>
<g>
</g>
<g>
</g>
<g>
</g>
<g>
</g>
</svg>
